<?xml version="1.0" standalone="no"?>
<!DOCTYPE svg PUBLIC "-//W3C//DTD SVG 20010904//EN"
 "http://www.w3.org/TR/2001/REC-SVG-20010904/DTD/svg10.dtd">
<svg version="1.0" xmlns="http://www.w3.org/2000/svg"
 width="501.000000pt" height="501.000000pt" viewBox="0 0 501.000000 501.000000"
 preserveAspectRatio="xMidYMid meet">

<g transform="translate(0.000000,501.000000) scale(0.100000,-0.100000)"
fill="#000000" stroke="none">
<path d="M950 3465 l0 -325 50 0 50 0 0 -55 0 -56 103 3 102 3 3 53 3 52 -105
0 -106 0 0 325 0 325 -50 0 -50 0 0 -325z"/>
<path d="M2030 3690 l0 -100 -50 0 -50 0 0 -55 0 -55 50 0 50 0 0 -170 0 -170
49 0 50 0 3 -52 3 -53 53 -3 52 -3 0 55 0 56 -50 0 -50 0 0 170 0 170 50 0 50
0 0 55 0 55 -50 0 -50 0 0 100 0 100 -55 0 -55 0 0 -100z"/>
<path d="M2490 3740 l0 -50 50 0 50 0 0 50 0 50 -50 0 -50 0 0 -50z"/>
<path d="M1528 3587 c-78 -23 -129 -69 -148 -138 l-9 -29 65 0 c49 0 64 3 64
14 0 21 47 55 87 62 45 8 108 -11 128 -39 8 -12 15 -36 15 -54 l0 -33 -97 0
c-113 0 -164 -12 -212 -47 -44 -34 -64 -84 -58 -146 5 -60 30 -95 88 -125 37
-20 56 -23 121 -20 67 3 82 7 122 35 l46 33 0 -36 0 -35 53 3 52 3 3 200 c3
216 -4 259 -51 303 -54 50 -181 73 -269 49z m202 -333 c0 -68 -52 -120 -132
-129 -78 -10 -134 43 -109 103 17 40 47 50 154 51 l87 1 0 -26z"/>
<path d="M3063 3586 c-23 -8 -58 -23 -77 -36 l-36 -22 0 31 c0 30 -1 31 -50
31 l-50 0 0 -280 0 -281 58 3 57 3 5 185 c5 171 7 187 27 216 29 40 72 58 124
51 49 -7 86 -38 99 -86 5 -20 10 -112 10 -204 l0 -168 58 3 57 3 0 205 c0 181
-2 209 -19 240 -30 57 -67 90 -120 105 -59 18 -87 18 -143 1z"/>
<path d="M2382 3538 l3 -53 53 -3 52 -3 0 -170 0 -169 50 0 50 0 0 -56 0 -55
53 3 52 3 3 53 3 52 -55 0 -56 0 0 225 0 225 -106 0 -105 0 3 -52z"/>
<path d="M3605 3459 c52 -72 95 -135 95 -140 0 -6 -45 -70 -100 -144 -55 -75
-100 -138 -100 -140 0 -3 29 -5 65 -5 l65 0 62 86 c35 48 68 93 73 101 8 11
26 -8 83 -87 l73 -100 65 0 c37 0 64 4 64 10 0 6 -45 71 -99 145 l-100 133 99
136 100 136 -69 0 -69 0 -48 -67 c-26 -38 -55 -78 -65 -91 l-18 -23 -63 90
-63 91 -72 0 -73 0 95 -131z"/>
<path d="M3060 2545 l0 -385 60 0 60 0 0 173 c0 144 3 178 18 207 36 73 123
100 189 60 54 -32 57 -48 61 -252 l4 -188 60 0 59 0 -3 208 c-3 192 -5 210
-25 249 -47 86 -144 127 -248 104 -30 -7 -69 -24 -85 -37 l-29 -25 -3 133 -3
133 -57 3 -58 3 0 -386z"/>
<path d="M1480 2810 l0 -100 -56 0 -55 0 3 -52 3 -53 53 -3 52 -3 0 -170 0
-169 50 0 50 0 0 -56 0 -55 53 3 52 3 3 53 3 52 -55 0 -56 0 0 169 0 170 53 3
52 3 3 53 3 52 -55 0 -56 0 0 100 0 100 -50 0 -50 0 0 -100z"/>
<path d="M1985 2721 c-45 -12 -107 -46 -131 -73 -52 -56 -69 -108 -69 -208 0
-84 3 -101 27 -147 60 -113 200 -167 334 -128 69 20 142 86 161 148 l11 37
-61 0 c-59 0 -63 -1 -75 -29 -19 -43 -90 -75 -147 -67 -70 11 -125 68 -125
131 l0 25 204 0 204 0 6 24 c14 57 -30 183 -81 228 -53 48 -185 78 -258 59z
m134 -109 c36 -18 65 -52 76 -89 l6 -23 -146 0 -146 0 6 23 c17 59 80 107 140
107 17 0 45 -8 64 -18z"/>
<path d="M2607 2716 c-131 -37 -207 -156 -194 -307 15 -183 158 -287 341 -249
90 19 161 83 186 169 l9 31 -64 0 c-61 0 -65 -2 -80 -29 -24 -48 -62 -71 -115
-71 -93 0 -152 70 -152 180 0 110 60 180 153 180 52 0 103 -32 120 -77 8 -21
15 -23 74 -23 l65 0 -20 52 c-24 62 -61 104 -117 129 -55 25 -146 32 -206 15z"/>
<path d="M1155 1941 c-137 -34 -212 -145 -203 -300 5 -83 22 -127 72 -179 53
-57 100 -76 191 -77 44 0 95 4 113 8 l32 9 0 -46 0 -45 -102 -3 -103 -3 -3
-52 -3 -53 105 0 106 0 0 50 0 50 50 0 50 0 0 55 0 55 -42 0 -43 0 37 30 c94
78 121 237 64 372 -6 14 -1 17 36 20 l43 3 3 53 3 52 -55 0 -56 0 0 -46 0 -46
-39 35 c-62 56 -167 79 -256 58z m155 -123 c53 -37 72 -81 68 -165 -4 -77 -18
-107 -72 -147 -39 -30 -121 -28 -164 3 -49 35 -66 75 -67 156 0 79 20 122 71
156 42 27 121 26 164 -3z"/>
<path d="M2283 1931 c-28 -9 -67 -29 -86 -44 -48 -37 -88 -121 -94 -201 -15
-176 103 -306 278 -306 175 0 290 128 277 310 -14 190 -192 305 -375 241z
m193 -122 c41 -39 57 -79 57 -144 0 -83 -30 -140 -86 -166 -54 -24 -81 -24
-134 2 -59 28 -87 82 -87 164 1 64 17 106 56 141 33 30 46 34 110 31 45 -3 64
-9 84 -28z"/>
<path d="M3729 1939 c-55 -8 -104 -32 -141 -67 l-28 -26 0 47 0 47 -55 0 -55
0 0 -370 0 -370 55 0 55 0 0 137 0 137 28 -27 c64 -61 193 -86 294 -55 50 15
123 79 150 132 32 62 36 175 8 248 -45 121 -173 190 -311 167z m115 -113 c68
-28 107 -127 86 -216 -41 -172 -259 -173 -300 0 -36 150 83 271 214 216z"/>
<path d="M1820 1891 l0 -50 -52 -3 -53 -3 0 -225 0 -225 53 -3 52 -3 0 225 0
225 103 3 102 3 3 53 3 52 -105 0 -106 0 0 -49z"/>
<path d="M2780 1753 c0 -198 6 -239 43 -294 54 -82 187 -103 296 -46 29 15 55
27 57 27 2 0 4 -13 4 -30 0 -29 1 -30 50 -30 l50 0 0 280 0 280 -60 0 -60 0 0
-171 c0 -186 -8 -220 -58 -259 -35 -28 -120 -28 -155 0 -39 31 -47 77 -47 263
l0 167 -60 0 -60 0 0 -187z"/>
</g>
</svg>
